<?xml version="1.0" encoding="UTF-8" standalone="no"?>
<svg
   xmlns:dc="http://purl.org/dc/elements/1.1/"
   xmlns:cc="http://creativecommons.org/ns#"
   xmlns:rdf="http://www.w3.org/1999/02/22-rdf-syntax-ns#"
   xmlns:svg="http://www.w3.org/2000/svg"
   xmlns="http://www.w3.org/2000/svg"
   xmlns:sodipodi="http://sodipodi.sourceforge.net/DTD/sodipodi-0.dtd"
   xmlns:inkscape="http://www.inkscape.org/namespaces/inkscape"
   width="445.95312"
   zoomAndPan="magnify"
   viewBox="0 0 334.46484 206.04686"
   height="274.72916"
   preserveAspectRatio="xMidYMid meet"
   version="1.0"
   id="svg109"
   sodipodi:docname="logo.svg"
   inkscape:version="0.92.5 (2060ec1f9f, 2020-04-08)">
  <metadata
     id="metadata113">
    <rdf:RDF>
      <cc:Work
         rdf:about="">
        <dc:format>image/svg+xml</dc:format>
        <dc:type
           rdf:resource="http://purl.org/dc/dcmitype/StillImage" />
      </cc:Work>
    </rdf:RDF>
  </metadata>
  <sodipodi:namedview
     pagecolor="#ffffff"
     bordercolor="#666666"
     borderopacity="1"
     objecttolerance="10"
     gridtolerance="10"
     guidetolerance="10"
     inkscape:pageopacity="0"
     inkscape:pageshadow="2"
     inkscape:window-width="1856"
     inkscape:window-height="1043"
     id="namedview111"
     showgrid="false"
     inkscape:zoom="0.472"
     inkscape:cx="223.09896"
     inkscape:cy="145.60415"
     inkscape:window-x="1430"
     inkscape:window-y="0"
     inkscape:window-maximized="1"
     inkscape:current-layer="svg109" />
  <defs
     id="defs7">
    <g
       id="g2" />
    <clipPath
       id="7463a34a9c">
      <path
         d="M 20.160156,167.39453 H 354.66016 v 40.5 H 20.160156 Z m 0,0"
         id="path4"
         inkscape:connector-curvature="0"
         style="clip-rule:nonzero" />
    </clipPath>
  </defs>
  <g
     id="g15"
     style="fill:#ffffff;fill-opacity:1"
     transform="translate(-20.175781,-90.656231)">
    <g
       transform="translate(20.964283,291.37498)"
       id="g13">
      <g
         id="g11">
        <path
           d="M 70.15625,5.328125 C 59.300781,5.328125 48.25,3.992188 37,1.328125 25.75,-1.335938 16.375,-4.835938 8.875,-9.171875 L 10.359375,-49.4375 h 2.96875 L 22.5,-30.203125 c 2.757812,5.53125 5.71875,10.421875 8.875,14.671875 3.164062,4.242188 7.507812,7.542969 13.03125,9.90625 3.945312,1.96875 7.742188,3.304688 11.390625,4 3.65625,0.6875 7.753906,1.03125 12.296875,1.03125 12.039062,0 21.5625,-3.253906 28.5625,-9.765625 7.00781,-6.507813 10.51563,-14.898437 10.51563,-25.171875 0,-9.664062 -2.3711,-17.210938 -7.10938,-22.640625 -4.742188,-5.425781 -12.339844,-10.707031 -22.796875,-15.84375 L 65.125,-79.34375 c -16.96875,-7.5 -30.242188,-16.132812 -39.8125,-25.90625 -9.574219,-9.76953 -14.359375,-22.74219 -14.359375,-38.92187 0,-11.64454 3.007813,-21.71094 9.03125,-30.20313 6.019531,-8.48828 14.40625,-15 25.15625,-19.53125 10.757813,-4.53906 23.34375,-6.8125 37.75,-6.8125 10.457031,0 20.375005,1.38281 29.750005,4.14063 9.375,2.76171 17.51562,6.51171 24.42187,11.25 l -1.76563,35.53125 h -2.96875 L 120.1875,-172 c -3.35547,-6.90625 -6.71094,-11.78906 -10.0625,-14.65625 -3.35547,-2.86328 -7.20312,-4.89062 -11.546875,-6.07812 -2.5625,-0.78125 -4.933594,-1.31641 -7.109375,-1.60938 -2.167969,-0.30078 -4.929688,-0.45312 -8.28125,-0.45312 -10.0625,0 -18.546875,2.91406 -25.453125,8.73437 -6.90625,5.82422 -10.359375,13.66797 -10.359375,23.53125 0,10.0625 2.660156,18.10547 7.984375,24.125 5.332031,6.02344 13.128906,11.40234 23.390625,16.14062 l 13.609375,5.92188 c 18.945315,8.29297 32.566405,17.125 40.859375,26.5 8.28906,9.375 12.4375,21.464844 12.4375,36.265625 0,17.367187 -6.5625,31.527344 -19.6875,42.484375 -13.125,10.949219 -31.730469,16.421875 -55.8125,16.421875 z m 0,0"
           id="path9"
           inkscape:connector-curvature="0" />
      </g>
    </g>
  </g>
  <g
     id="g23"
     style="fill:#ffffff;fill-opacity:1"
     transform="translate(-20.175781,-90.656231)">
    <g
       transform="translate(160.40227,291.37498)"
       id="g21">
      <g
         id="g19">
        <path
           d="m 6.515625,0 v -2.953125 l 6.21875,-2.375 c 3.945313,-1.382813 6.507813,-3.257813 7.6875,-5.625 1.1875,-2.363281 1.78125,-5.421875 1.78125,-9.171875 v -154.84375 c 0,-3.94531 -0.59375,-7.10156 -1.78125,-9.46875 -1.179687,-2.36328 -3.742187,-4.23828 -7.6875,-5.625 l -6.21875,-2.375 v -2.95312 h 73.71875 v 2.95312 l -6.515625,2.67188 c -3.355469,1.1875 -5.625,2.96484 -6.8125,5.32812 -1.1875,2.36719 -1.78125,5.62109 -1.78125,9.76563 v 154.843745 c 0,3.9375 0.640625,6.996094 1.921875,9.171875 1.289063,2.167969 3.8125,3.945312 7.5625,5.328125 l 5.625,2.375 V 0 Z M 115.75,0 v -2.953125 l 3.85938,-1.1875 c 3.94531,-1.1875 6.01562,-3.160156 6.20312,-5.921875 0.19531,-2.757812 -0.98437,-5.921875 -3.54687,-9.484375 l -56.843755,-80.812505 74.906245,-76.37499 c 2.75782,-2.76954 4.28516,-5.4375 4.57813,-8 0.30078,-2.5625 -1.62109,-4.53516 -5.76563,-5.92188 l -5.03125,-1.78125 v -2.95312 h 43.21875 v 2.95312 l -7.6875,2.375 c -4.34375,1.38672 -7.80468,3.07031 -10.375,5.04688 -2.5625,1.96875 -5.52343,4.63281 -8.875,7.98437 l -52.98437,54.17187 69.5625,101.54688 c 2.95703,4.34375 5.76953,7.898438 8.4375,10.65625 2.66406,2.761719 6.46875,4.933594 11.40625,6.515625 l 4.14062,1.1875 V 0 Z m 0,0"
           id="path17"
           inkscape:connector-curvature="0" />
      </g>
    </g>
  </g>
  <g
     clip-path="url(#7463a34a9c)"
     id="g27"
     transform="translate(-20.175781,-90.656231)">
    <path
       d="M 20.175781,167.39453 H 354.64062 v 40.5 H 20.175781 v -40.5"
       id="path25"
       inkscape:connector-curvature="0"
       style="fill:#141516;fill-opacity:1;fill-rule:nonzero" />
  </g>
  <g
     id="g35"
     style="fill:#fdb32c;fill-opacity:1"
     transform="translate(-20.175781,-90.656231)">
    <g
       transform="translate(26.09008,196.87499)"
       id="g33">
      <g
         id="g31">
        <path
           d="M 5.8125,-19.3125 V 0 H 1.40625 v -19.3125 z m 0,0"
           id="path29"
           inkscape:connector-curvature="0" />
      </g>
    </g>
  </g>
  <g
     id="g43"
     style="fill:#fdb32c;fill-opacity:1"
     transform="translate(-20.175781,-90.656231)">
    <g
       transform="translate(52.017158,196.87499)"
       id="g41">
      <g
         id="g39">
        <path
           d="m 19.46875,0 h -5.6875 L 9.21875,-6.578125 4.65625,0 H -0.796875 L 6.5,-10.390625 0.421875,-19.3125 h 5.25 l 3.546875,5.265625 3.5625,-5.265625 H 18.25 l -6.3125,8.921875 z m 0,0"
           id="path37"
           inkscape:connector-curvature="0" />
      </g>
    </g>
  </g>
  <g
     id="g51"
     style="fill:#fdb32c;fill-opacity:1"
     transform="translate(-20.175781,-90.656231)">
    <g
       transform="translate(89.405653,196.87499)"
       id="g49">
      <g
         id="g47">
        <path
           d="M 0.1875,-15.453125 V -19.3125 h 13.578125 v 3.859375 H 9.171875 V 0 H 4.78125 v -15.453125 z m 0,0"
           id="path45"
           inkscape:connector-curvature="0" />
      </g>
    </g>
  </g>
  <g
     id="g59"
     style="fill:#fdb32c;fill-opacity:1"
     transform="translate(-20.175781,-90.656231)">
    <g
       transform="translate(122.06923,196.87499)"
       id="g57">
      <g
         id="g55">
        <path
           d="M 1.40625,-19.3125 H 8.3125 c 1.851562,0 3.363281,0.496094 4.53125,1.484375 1.175781,0.992187 1.765625,2.40625 1.765625,4.25 0,1.417969 -0.359375,2.609375 -1.078125,3.578125 -0.710938,0.960938 -1.667969,1.632812 -2.875,2.015625 L 17.296875,0 h -5.59375 L 5.8125,-7.625 V 0 H 1.40625 Z M 5.8125,-10.75 h 0.5 c 0.40625,0 0.75,-0.0039 1.03125,-0.01563 0.28125,-0.01953 0.597656,-0.07813 0.953125,-0.171875 0.363281,-0.09375 0.65625,-0.222656 0.875,-0.390625 0.21875,-0.175781 0.40625,-0.425781 0.5625,-0.75 0.15625,-0.320313 0.234375,-0.71875 0.234375,-1.1875 0,-0.46875 -0.078125,-0.863281 -0.234375,-1.1875 -0.15625,-0.332031 -0.34375,-0.582031 -0.5625,-0.75 -0.21875,-0.175781 -0.511719,-0.3125 -0.875,-0.40625 C 7.941406,-15.70313 7.625,-15.753911 7.34375,-15.76563 7.0625,-15.78516 6.71875,-15.79688 6.3125,-15.79688 h -0.5 z m 0,0"
           id="path53"
           inkscape:connector-curvature="0" />
      </g>
    </g>
  </g>
  <g
     id="g67"
     style="fill:#fdb32c;fill-opacity:1"
     transform="translate(-20.175781,-90.656231)">
    <g
       transform="translate(157.5397,196.87499)"
       id="g65">
      <g
         id="g63">
        <path
           d="M 5.8125,-19.3125 V 0 H 1.40625 v -19.3125 z m 0,0"
           id="path61"
           inkscape:connector-curvature="0" />
      </g>
    </g>
  </g>
  <g
     id="g75"
     style="fill:#fdb32c;fill-opacity:1"
     transform="translate(-20.175781,-90.656231)">
    <g
       transform="translate(183.46678,196.87499)"
       id="g73">
      <g
         id="g71">
        <path
           d="M 17.375,0 16.453125,-11.453125 H 16.34375 L 12.375,-0.109375 H 9.765625 L 5.8125,-11.453125 H 5.6875 L 4.78125,0 H 0.375 L 2.109375,-19.3125 H 6.78125 l 4.296875,11.140625 4.28125,-11.140625 H 20.03125 L 21.765625,0 Z m 0,0"
           id="path69"
           inkscape:connector-curvature="0" />
      </g>
    </g>
  </g>
  <g
     id="g83"
     style="fill:#fdb32c;fill-opacity:1"
     transform="translate(-20.175781,-90.656231)">
    <g
       transform="translate(224.3171,196.87499)"
       id="g81">
      <g
         id="g79">
        <path
           d="m 4.078125,-5.015625 c 0.75,0 1.382813,0.265625 1.90625,0.796875 0.519531,0.523438 0.78125,1.15625 0.78125,1.90625 0,0.730469 -0.261719,1.355469 -0.78125,1.875 -0.523437,0.5195312 -1.15625,0.78125 -1.90625,0.78125 -0.742187,0 -1.371094,-0.2617188 -1.890625,-0.78125 -0.523438,-0.519531 -0.78125,-1.144531 -0.78125,-1.875 0,-0.75 0.257812,-1.382812 0.78125,-1.90625 C 2.707031,-4.75 3.335938,-5.015625 4.078125,-5.015625 Z m 0,0"
           id="path77"
           inkscape:connector-curvature="0" />
      </g>
    </g>
  </g>
  <g
     id="g91"
     style="fill:#fdb32c;fill-opacity:1"
     transform="translate(-20.175781,-90.656231)">
    <g
       transform="translate(251.20318,196.87499)"
       id="g89">
      <g
         id="g87">
        <path
           d="m 11.6875,-3.984375 c 0.664062,0 1.3125,-0.097656 1.9375,-0.296875 0.632812,-0.207031 1.101562,-0.40625 1.40625,-0.59375 l 0.4375,-0.296875 1.875,3.75 c -0.0625,0.042969 -0.152344,0.105469 -0.265625,0.1875 -0.105469,0.074219 -0.355469,0.21875 -0.75,0.4375 -0.398437,0.210937 -0.824219,0.390625 -1.28125,0.546875 -0.449219,0.15625 -1.042969,0.2890625 -1.78125,0.40625 -0.730469,0.125 -1.484375,0.1875 -2.265625,0.1875 -1.792969,0 -3.496094,-0.4375 -5.109375,-1.3125 C 4.285156,-1.851562 2.988281,-3.066406 2,-4.609375 1.019531,-6.148438 0.53125,-7.820312 0.53125,-9.625 c 0,-1.351562 0.285156,-2.65625 0.859375,-3.90625 0.582031,-1.25 1.351563,-2.316406 2.3125,-3.203125 0.96875,-0.882813 2.085937,-1.59375 3.359375,-2.125 1.28125,-0.53125 2.59375,-0.796875 3.9375,-0.796875 1.25,0 2.398438,0.152344 3.453125,0.453125 1.050781,0.292969 1.796875,0.585937 2.234375,0.875 l 0.65625,0.453125 -1.875,3.734375 c -0.105469,-0.09375 -0.265625,-0.203125 -0.484375,-0.328125 -0.21875,-0.132812 -0.65625,-0.3125 -1.3125,-0.53125 -0.65625,-0.21875 -1.320313,-0.328125 -1.984375,-0.328125 -1.0625,0 -2.015625,0.171875 -2.859375,0.515625 -0.84375,0.34375 -1.515625,0.796875 -2.015625,1.359375 -0.492188,0.5625 -0.867188,1.167969 -1.125,1.8125 -0.25,0.648437 -0.375,1.304687 -0.375,1.96875 0,1.46875 0.546875,2.789063 1.640625,3.953125 1.101563,1.15625 2.679687,1.734375 4.734375,1.734375 z m 0,0"
           id="path85"
           inkscape:connector-curvature="0" />
      </g>
    </g>
  </g>
  <g
     id="g99"
     style="fill:#fdb32c;fill-opacity:1"
     transform="translate(-20.175781,-90.656231)">
    <g
       transform="translate(287.53908,196.87499)"
       id="g97">
      <g
         id="g95">
        <path
           d="m 0.53125,-9.671875 c 0,-2.789063 0.953125,-5.148437 2.859375,-7.078125 1.90625,-1.9375 4.203125,-2.90625 6.890625,-2.90625 2.695312,0 4.988281,0.964844 6.875,2.890625 1.882812,1.929687 2.828125,4.292969 2.828125,7.09375 0,2.824219 -0.929687,5.199219 -2.78125,7.125 -1.855469,1.929687 -4.164063,2.890625 -6.921875,2.890625 -2.835938,0 -5.167969,-0.953125 -7,-2.859375 -1.835938,-1.914063 -2.75,-4.300781 -2.75,-7.15625 z m 4.765625,0 c 0,1.023437 0.148437,1.949219 0.453125,2.78125 0.3125,0.835937 0.859375,1.542969 1.640625,2.125 0.78125,0.574219 1.742187,0.859375 2.890625,0.859375 1.632812,0 2.867188,-0.5625 3.703125,-1.6875 0.832031,-1.125 1.25,-2.484375 1.25,-4.078125 0,-1.570313 -0.429687,-2.921875 -1.28125,-4.046875 -0.84375,-1.132812 -2.070313,-1.703125 -3.671875,-1.703125 -1.59375,0 -2.824219,0.570313 -3.6875,1.703125 -0.867188,1.125 -1.296875,2.476562 -1.296875,4.046875 z m 0,0"
           id="path93"
           inkscape:connector-curvature="0" />
      </g>
    </g>
  </g>
  <g
     id="g107"
     style="fill:#fdb32c;fill-opacity:1"
     transform="translate(-20.175781,-90.656231)">
    <g
       transform="translate(326.77545,196.87499)"
       id="g105">
      <g
         id="g103">
        <path
           d="M 17.375,0 16.453125,-11.453125 H 16.34375 L 12.375,-0.109375 H 9.765625 L 5.8125,-11.453125 H 5.6875 L 4.78125,0 H 0.375 L 2.109375,-19.3125 H 6.78125 l 4.296875,11.140625 4.28125,-11.140625 H 20.03125 L 21.765625,0 Z m 0,0"
           id="path101"
           inkscape:connector-curvature="0" />
      </g>
    </g>
  </g>
</svg>
